<svg width="600" height="600" viewBox="0 0 600 600" fill="none" xmlns="http://www.w3.org/2000/svg">
<path d="M60 556V128.384L462.848 6V433.616L60 556Z" fill="black" stroke="black"/>
<path d="M140.024 593.907V166.291L540.024 43.9071V471.523L140.024 593.907Z" fill="black" stroke="black"/>
<path d="M291.389 378.334V411H165.998V378.334H291.389ZM289.338 221.742L181.672 411H155.012V386.244L263.264 197.719H289.338V221.742ZM275.422 197.719V230.531H154.426V197.719H275.422ZM463.508 287.367V323.256C463.508 338.295 461.75 351.479 458.234 362.807C454.719 374.135 449.641 383.607 443 391.225C436.359 398.744 428.4 404.408 419.123 408.217C409.846 412.025 399.592 413.93 388.361 413.93C377.033 413.93 366.73 412.025 357.453 408.217C348.176 404.408 340.168 398.744 333.43 391.225C326.789 383.607 321.613 374.135 317.902 362.807C314.289 351.479 312.482 338.295 312.482 323.256V287.367C312.482 272.035 314.289 258.607 317.902 247.084C321.516 235.561 326.643 225.941 333.283 218.227C340.021 210.512 348.029 204.701 357.307 200.795C366.584 196.791 376.838 194.789 388.068 194.789C399.396 194.789 409.65 196.791 418.83 200.795C428.107 204.701 436.066 210.512 442.707 218.227C449.445 225.941 454.572 235.561 458.088 247.084C461.701 258.607 463.508 272.035 463.508 287.367ZM424.543 323.256V287.074C424.543 276.625 423.762 267.641 422.199 260.121C420.637 252.602 418.293 246.498 415.168 241.811C412.043 237.025 408.186 233.51 403.596 231.264C399.104 229.018 393.928 227.895 388.068 227.895C382.111 227.895 376.838 229.018 372.248 231.264C367.756 233.51 363.947 237.025 360.822 241.811C357.795 246.498 355.5 252.602 353.938 260.121C352.375 267.641 351.594 276.625 351.594 287.074V323.256C351.594 333.51 352.375 342.299 353.938 349.623C355.5 356.947 357.844 362.904 360.969 367.494C364.191 372.084 368.049 375.502 372.541 377.748C377.131 379.896 382.404 380.971 388.361 380.971C394.221 380.971 399.396 379.896 403.889 377.748C408.479 375.502 412.287 372.084 415.314 367.494C418.439 362.904 420.734 356.947 422.199 349.623C423.762 342.299 424.543 333.51 424.543 323.256Z" fill="white"/>
</svg>
