<svg width="602" height="710" viewBox="0 0 602 710" fill="none" xmlns="http://www.w3.org/2000/svg">
<g filter="url(#filter0_d_54_36)">
<path d="M61 576V148.384L463.848 26V453.616L61 576Z" fill="black" stroke="black"/>
<path d="M141.024 613.907V186.291L541.024 63.9071V491.523L141.024 613.907Z" fill="black" stroke="black"/>
</g>
<path d="M292.389 398.334V431H166.998V398.334H292.389ZM290.338 241.742L182.672 431H156.012V406.244L264.264 217.719H290.338V241.742ZM276.422 217.719V250.531H155.426V217.719H276.422ZM464.508 307.367V343.256C464.508 358.295 462.75 371.479 459.234 382.807C455.719 394.135 450.641 403.607 444 411.225C437.359 418.744 429.4 424.408 420.123 428.217C410.846 432.025 400.592 433.93 389.361 433.93C378.033 433.93 367.73 432.025 358.453 428.217C349.176 424.408 341.168 418.744 334.43 411.225C327.789 403.607 322.613 394.135 318.902 382.807C315.289 371.479 313.482 358.295 313.482 343.256V307.367C313.482 292.035 315.289 278.607 318.902 267.084C322.516 255.561 327.643 245.941 334.283 238.227C341.021 230.512 349.029 224.701 358.307 220.795C367.584 216.791 377.838 214.789 389.068 214.789C400.396 214.789 410.65 216.791 419.83 220.795C429.107 224.701 437.066 230.512 443.707 238.227C450.445 245.941 455.572 255.561 459.088 267.084C462.701 278.607 464.508 292.035 464.508 307.367ZM425.543 343.256V307.074C425.543 296.625 424.762 287.641 423.199 280.121C421.637 272.602 419.293 266.498 416.168 261.811C413.043 257.025 409.186 253.51 404.596 251.264C400.104 249.018 394.928 247.895 389.068 247.895C383.111 247.895 377.838 249.018 373.248 251.264C368.756 253.51 364.947 257.025 361.822 261.811C358.795 266.498 356.5 272.602 354.938 280.121C353.375 287.641 352.594 296.625 352.594 307.074V343.256C352.594 353.51 353.375 362.299 354.938 369.623C356.5 376.947 358.844 382.904 361.969 387.494C365.191 392.084 369.049 395.502 373.541 397.748C378.131 399.896 383.404 400.971 389.361 400.971C395.221 400.971 400.396 399.896 404.889 397.748C409.479 395.502 413.287 392.084 416.314 387.494C419.439 382.904 421.734 376.947 423.199 369.623C424.762 362.299 425.543 353.51 425.543 343.256Z" fill="white"/>
<defs>
<filter id="filter0_d_54_36" x="0.299999" y="0.125561" width="601.424" height="709.657" filterUnits="userSpaceOnUse" color-interpolation-filters="sRGB">
<feFlood flood-opacity="0" result="BackgroundImageFix"/>
<feColorMatrix in="SourceAlpha" type="matrix" values="0 0 0 0 0 0 0 0 0 0 0 0 0 0 0 0 0 0 127 0" result="hardAlpha"/>
<feOffset dy="35"/>
<feGaussianBlur stdDeviation="30.1"/>
<feComposite in2="hardAlpha" operator="out"/>
<feColorMatrix type="matrix" values="0 0 0 0 0 0 0 0 0 0 0 0 0 0 0 0 0 0 0.5 0"/>
<feBlend mode="normal" in2="BackgroundImageFix" result="effect1_dropShadow_54_36"/>
<feBlend mode="normal" in="SourceGraphic" in2="effect1_dropShadow_54_36" result="shape"/>
</filter>
</defs>
</svg>
