<svg width="936" height="552" viewBox="0 0 936 552" fill="none" xmlns="http://www.w3.org/2000/svg">
<path d="M883.345 157L684.159 42C655.462 25.4315 608.934 25.4315 580.236 42L51.9613 347C23.2637 363.569 23.2637 390.431 51.9613 407L251.147 522C279.845 538.569 326.372 538.569 355.07 522L883.345 217C912.043 200.431 912.043 173.569 883.345 157Z" fill="black"/>
<path d="M882.913 145.25L683.727 30.25C656.226 14.3718 611.636 14.3718 584.134 30.25L55.8592 335.25C28.3574 351.128 28.3574 376.872 55.8592 392.75L255.045 507.75C282.547 523.628 327.136 523.628 354.638 507.75L882.913 202.75C910.415 186.872 910.415 161.128 882.913 145.25Z" stroke="black" stroke-width="5"/>
<path d="M489.304 108.5L466.787 95.5C465.83 94.9477 464.279 94.9477 463.323 95.5L423.486 118.5C422.529 119.052 422.529 119.948 423.486 120.5L446.002 133.5C446.959 134.052 448.51 134.052 449.466 133.5L489.304 110.5C490.26 109.948 490.26 109.052 489.304 108.5Z" fill="#D9D9D9"/>
<path d="M434.744 140L412.227 127C411.27 126.448 409.72 126.448 408.763 127L368.926 150C367.969 150.552 367.969 151.448 368.926 152L391.442 165C392.399 165.552 393.95 165.552 394.907 165L434.744 142C435.7 141.448 435.7 140.552 434.744 140Z" fill="#D9D9D9"/>
<path d="M756.906 279L734.389 266C733.432 265.448 731.882 265.448 730.925 266L665.107 304C664.15 304.552 664.15 305.448 665.107 306L687.624 319C688.58 319.552 690.131 319.552 691.088 319L756.906 281C757.862 280.448 757.862 279.552 756.906 279Z" fill="#D9D9D9"/>
<path d="M536.069 81.5L513.552 68.5C512.596 67.9477 511.045 67.9477 510.088 68.5L487.571 81.5C486.615 82.0523 486.615 82.9477 487.571 83.5L510.088 96.5C511.045 97.0523 512.596 97.0523 513.552 96.5L536.069 83.5C537.025 82.9477 537.025 82.0523 536.069 81.5Z" fill="#D9D9D9"/>
<path d="M881.962 144.688L683.873 30.3208C655.175 13.7523 608.647 13.7523 579.95 30.3208L53.9614 334C25.2639 350.569 25.2639 377.432 53.9614 394L252.051 508.367C280.748 524.936 327.276 524.936 355.974 508.367L881.962 204.688C910.659 188.119 910.659 161.256 881.962 144.688Z" fill="url(#paint0_linear_1037_11)"/>
<path fill-rule="evenodd" clip-rule="evenodd" d="M650.867 49.9529C653.04 51.2073 656.029 50.9714 658.906 49.3103C659.99 48.6848 660.694 48.0388 661.002 47.4031C661.523 46.4392 661.126 45.5266 659.877 44.8054C658.018 43.7322 655.455 43.6946 653.703 44.7063C652.057 45.6565 652.045 47.0305 653.673 47.9705C654.674 48.5481 655.952 48.7463 657.166 48.5105L657.267 48.5686C655.313 49.6965 653.407 49.9426 652.157 49.2214C651.423 48.7976 651.258 48.2371 651.708 47.7517L650.186 46.8733C649.038 47.8303 649.304 49.0505 650.867 49.9529ZM655.254 47.4817C654.271 46.9143 654.271 46.1077 655.248 45.5437C656.201 44.9934 657.663 44.9968 658.616 45.5471C659.569 46.0974 659.564 46.9485 658.599 47.5056C657.645 48.0559 656.23 48.0457 655.254 47.4817ZM664.199 50.1649C663.666 50.4725 662.885 50.4794 662.323 50.1547C661.766 49.8334 661.772 49.3788 662.305 49.0712C662.843 48.7601 663.631 48.7567 664.187 49.078C664.75 49.4027 664.738 49.8539 664.199 50.1649ZM657.882 52.7182C658.445 53.0429 659.232 53.0326 659.765 52.725C660.304 52.414 660.316 51.9628 659.753 51.6381C659.197 51.3168 658.409 51.3202 657.871 51.6312C657.338 51.9389 657.326 52.3969 657.882 52.7182ZM666.638 56.9805L665.046 57.8999L663.584 57.0557L665.176 56.1363L661.003 53.7266L662.364 52.9405C664.549 52.5679 667.651 52.1646 671.434 51.7237L673.589 52.9678L667.929 56.2354L669.083 56.9019L667.793 57.647L666.638 56.9805ZM666.455 55.4253L663.673 53.8189L663.761 53.7676C666.508 53.3301 668.799 53.0327 670.824 52.8072L670.907 52.855L666.455 55.4253ZM679.663 56.4748L671.12 61.4069L669.593 60.5251L676.596 56.4816L676.496 56.4235L672.879 56.0578L674.347 55.2101L678.141 55.5964L679.663 56.4748Z" fill="black"/>
<path d="M794.145 113.5L738.719 81.5C732.023 77.634 721.167 77.634 714.471 81.5C707.775 85.366 707.775 91.634 714.471 95.5L769.896 127.5C776.592 131.366 787.449 131.366 794.145 127.5C800.841 123.634 800.841 117.366 794.145 113.5Z" fill="black"/>
<path opacity="0.35" fill-rule="evenodd" clip-rule="evenodd" d="M874.379 168.157C875.661 168.898 875.666 170.095 874.391 170.831L869.195 173.831C867.919 174.567 865.846 174.564 864.564 173.824L850.057 165.448C848.775 164.708 848.77 163.511 850.045 162.775L855.241 159.775C856.517 159.039 858.59 159.042 859.872 159.782L874.379 168.157ZM873.513 168.657L859.006 160.282C858.247 159.844 857.044 159.819 856.242 160.209L856.112 160.278L850.916 163.278C850.16 163.714 850.124 164.408 850.803 164.873L850.923 164.948L865.43 173.324C866.189 173.762 867.392 173.787 868.194 173.397L868.324 173.328L873.52 170.328C874.276 169.892 874.312 169.198 873.633 168.733L873.513 168.657ZM873.819 173.501C873.063 173.937 871.925 174.068 870.931 173.833L874.395 171.833C874.802 172.407 874.575 173.064 873.819 173.501Z" fill="black"/>
<path d="M872.072 168.825L858.714 161.113C858.076 160.744 857.042 160.744 856.404 161.113L852.363 163.446C851.725 163.814 851.725 164.411 852.363 164.779L865.721 172.492C866.359 172.86 867.393 172.86 868.031 172.492L872.072 170.158C872.71 169.79 872.71 169.193 872.072 168.825Z" fill="black"/>
<path fill-rule="evenodd" clip-rule="evenodd" d="M844.552 153.212C846.481 154.325 847.598 155.822 847.674 157.393C847.677 157.512 847.847 157.609 848.054 157.609L850.07 157.606C850.176 157.606 850.276 157.582 850.35 157.539C850.423 157.496 850.464 157.438 850.463 157.377C850.292 153.239 844.504 149.897 837.337 149.799C837.232 149.798 837.131 149.821 837.056 149.864C836.982 149.906 836.94 149.964 836.939 150.025L836.936 151.189C836.935 151.309 837.102 151.407 837.31 151.409C840.03 151.453 842.623 152.098 844.552 153.212ZM841.265 155.109C842.324 155.721 842.954 156.537 843.032 157.4C843.038 157.519 843.208 157.614 843.414 157.615L845.43 157.611C845.536 157.611 845.637 157.587 845.711 157.543C845.785 157.5 845.825 157.441 845.823 157.38C845.645 154.72 841.94 152.582 837.334 152.479C837.229 152.477 837.126 152.501 837.051 152.544C836.976 152.586 836.933 152.645 836.933 152.706L836.928 153.869C836.928 153.989 837.093 154.087 837.3 154.09C838.792 154.135 840.205 154.498 841.265 155.109ZM841.066 157.549C840.993 157.593 840.891 157.617 840.785 157.617L837.301 157.621C837.198 157.621 837.1 157.598 837.028 157.556C836.955 157.514 836.914 157.457 836.915 157.398L836.922 155.386C836.92 155.325 836.963 155.266 837.04 155.224C837.116 155.182 837.22 155.159 837.326 155.163C839.37 155.264 840.997 156.203 841.173 157.384C841.178 157.445 841.14 157.505 841.066 157.549Z" fill="black"/>
<path fill-rule="evenodd" clip-rule="evenodd" d="M834.34 145.374L833.47 144.872C832.989 144.594 832.211 144.593 831.733 144.869L824.228 149.203C823.749 149.479 823.751 149.928 824.232 150.205L825.102 150.708C825.583 150.985 826.361 150.986 826.839 150.71L834.344 146.377C834.823 146.101 834.821 145.652 834.34 145.374ZM827.387 143.693L828.257 144.196C828.738 144.473 828.74 144.922 828.261 145.198L822.777 148.365C822.298 148.641 821.521 148.64 821.04 148.362L820.17 147.86C819.689 147.582 819.687 147.133 820.165 146.857L825.65 143.691C826.128 143.414 826.906 143.416 827.387 143.693ZM822.175 143.018L821.304 142.515C820.824 142.237 820.046 142.236 819.568 142.512L816.104 144.512C815.625 144.789 815.627 145.237 816.108 145.515L816.979 146.018C817.459 146.295 818.237 146.296 818.715 146.02L822.179 144.02C822.657 143.744 822.655 143.295 822.175 143.018ZM816.38 141.672L815.51 141.17C815.029 140.892 814.252 140.891 813.774 141.167L812.042 142.167C811.563 142.443 811.565 142.892 812.046 143.17L812.916 143.672C813.397 143.95 814.175 143.951 814.653 143.675L816.385 142.675C816.863 142.399 816.861 141.95 816.38 141.672Z" fill="black"/>
<defs>
<linearGradient id="paint0_linear_1037_11" x1="782.917" y1="87.5043" x2="467.961" y2="633.023" gradientUnits="userSpaceOnUse">
<stop stop-color="#047BFF"/>
<stop offset="1" stop-color="#111111"/>
</linearGradient>
</defs>
</svg>
