<svg width="938" height="554" viewBox="0 0 938 554" fill="none" xmlns="http://www.w3.org/2000/svg">
<g clip-path="url(#clip0_1013_554)">
<path d="M883.345 159L684.16 44C655.462 27.4315 608.934 27.4315 580.237 44L51.9615 349C23.264 365.569 23.264 392.431 51.9615 409L251.147 524C279.845 540.569 326.373 540.569 355.07 524L883.345 219C912.043 202.431 912.043 175.569 883.345 159Z" fill="black"/>
<path d="M882.913 147.25L683.727 32.25C656.225 16.3718 611.636 16.3718 584.134 32.25L55.859 337.25C28.3572 353.128 28.3572 378.872 55.859 394.75L255.045 509.75C282.547 525.628 327.136 525.628 354.638 509.75L882.913 204.75C910.415 188.872 910.415 163.128 882.913 147.25Z" stroke="black" stroke-width="5"/>
<path d="M489.303 110.5L466.787 97.5C465.83 96.9477 464.279 96.9477 463.323 97.5L423.485 120.5C422.529 121.052 422.529 121.948 423.485 122.5L446.002 135.5C446.959 136.052 448.51 136.052 449.466 135.5L489.303 112.5C490.26 111.948 490.26 111.052 489.303 110.5Z" fill="#D9D9D9"/>
<path d="M434.744 142L412.227 129C411.271 128.448 409.72 128.448 408.763 129L368.926 152C367.969 152.552 367.969 153.448 368.926 154L391.443 167C392.399 167.552 393.95 167.552 394.907 167L434.744 144C435.7 143.448 435.7 142.552 434.744 142Z" fill="#D9D9D9"/>
<path d="M756.906 281L734.389 268C733.433 267.448 731.882 267.448 730.925 268L665.107 306C664.151 306.552 664.151 307.448 665.107 308L687.624 321C688.581 321.552 690.131 321.552 691.088 321L756.906 283C757.863 282.448 757.863 281.552 756.906 281Z" fill="#D9D9D9"/>
<path d="M536.069 83.5L513.552 70.5C512.596 69.9477 511.045 69.9477 510.088 70.5L487.572 83.5C486.615 84.0523 486.615 84.9477 487.572 85.5L510.088 98.5C511.045 99.0523 512.596 99.0523 513.552 98.5L536.069 85.5C537.026 84.9477 537.026 84.0523 536.069 83.5Z" fill="#D9D9D9"/>
<path d="M881.962 146.688L683.873 32.3208C655.175 15.7523 608.647 15.7523 579.95 32.3208L53.9616 336C25.264 352.569 25.264 379.432 53.9616 396L252.051 510.367C280.748 526.936 327.276 526.936 355.974 510.367L881.962 206.688C910.66 190.119 910.66 163.256 881.962 146.688Z" fill="url(#paint0_linear_1013_554)"/>
<path fill-rule="evenodd" clip-rule="evenodd" d="M650.867 51.9529C653.04 53.2073 656.029 52.9714 658.906 51.3103C659.99 50.6848 660.694 50.0388 661.002 49.4031C661.523 48.4392 661.126 47.5266 659.877 46.8054C658.018 45.7322 655.455 45.6946 653.703 46.7063C652.057 47.6565 652.045 49.0305 653.673 49.9705C654.674 50.5481 655.952 50.7463 657.166 50.5105L657.267 50.5686C655.313 51.6965 653.407 51.9426 652.157 51.2214C651.423 50.7976 651.258 50.2371 651.708 49.7517L650.186 48.8733C649.038 49.8303 649.304 51.0505 650.867 51.9529ZM655.254 49.4817C654.271 48.9143 654.271 48.1077 655.248 47.5437C656.201 46.9934 657.663 46.9968 658.616 47.5471C659.569 48.0974 659.564 48.9485 658.599 49.5056C657.645 50.0559 656.23 50.0457 655.254 49.4817ZM664.199 52.1649C663.666 52.4725 662.885 52.4794 662.323 52.1547C661.766 51.8334 661.772 51.3788 662.305 51.0712C662.843 50.7601 663.631 50.7567 664.187 51.078C664.75 51.4027 664.738 51.8539 664.199 52.1649ZM657.882 54.7182C658.445 55.0429 659.232 55.0326 659.765 54.725C660.304 54.414 660.316 53.9628 659.753 53.6381C659.197 53.3168 658.409 53.3202 657.871 53.6312C657.338 53.9389 657.326 54.3969 657.882 54.7182ZM666.638 58.9805L665.046 59.8999L663.584 59.0557L665.176 58.1363L661.003 55.7266L662.364 54.9405C664.549 54.5679 667.651 54.1646 671.434 53.7237L673.589 54.9678L667.929 58.2354L669.083 58.9019L667.793 59.647L666.638 58.9805ZM666.455 57.4253L663.673 55.8189L663.761 55.7676C666.508 55.3301 668.799 55.0327 670.824 54.8072L670.907 54.855L666.455 57.4253ZM679.663 58.4748L671.12 63.4069L669.593 62.5251L676.596 58.4816L676.496 58.4235L672.879 58.0578L674.347 57.2101L678.141 57.5964L679.663 58.4748Z" fill="black"/>
<path d="M794.145 115.5L738.719 83.5C732.023 79.634 721.166 79.634 714.47 83.5C707.774 87.366 707.774 93.634 714.47 97.5L769.896 129.5C776.592 133.366 787.449 133.366 794.145 129.5C800.841 125.634 800.841 119.366 794.145 115.5Z" fill="black"/>
<path opacity="0.35" fill-rule="evenodd" clip-rule="evenodd" d="M874.379 170.157C875.661 170.898 875.666 172.095 874.391 172.831L869.195 175.831C867.919 176.567 865.846 176.564 864.564 175.824L850.057 167.448C848.775 166.708 848.77 165.511 850.045 164.775L855.241 161.775C856.517 161.039 858.59 161.042 859.872 161.782L874.379 170.157ZM873.513 170.657L859.006 162.282C858.247 161.844 857.044 161.819 856.242 162.209L856.112 162.278L850.916 165.278C850.16 165.714 850.124 166.408 850.803 166.873L850.923 166.948L865.43 175.324C866.189 175.762 867.392 175.787 868.194 175.397L868.324 175.328L873.52 172.328C874.276 171.892 874.312 171.198 873.633 170.733L873.513 170.657ZM873.819 175.501C873.063 175.937 871.925 176.068 870.931 175.833L874.395 173.833C874.802 174.407 874.575 175.064 873.819 175.501Z" fill="black"/>
<path d="M872.072 170.825L858.713 163.113C858.076 162.745 857.042 162.745 856.404 163.113L852.362 165.446C851.725 165.814 851.725 166.411 852.362 166.779L865.721 174.492C866.358 174.86 867.392 174.86 868.03 174.492L872.072 172.158C872.709 171.79 872.709 171.193 872.072 170.825Z" fill="black"/>
<path fill-rule="evenodd" clip-rule="evenodd" d="M844.552 155.212C846.481 156.325 847.598 157.822 847.674 159.393C847.677 159.512 847.847 159.609 848.054 159.609L850.07 159.606C850.176 159.606 850.276 159.582 850.35 159.539C850.423 159.496 850.464 159.438 850.463 159.377C850.292 155.239 844.504 151.897 837.337 151.799C837.232 151.798 837.131 151.821 837.056 151.864C836.982 151.906 836.94 151.964 836.939 152.025L836.936 153.189C836.935 153.309 837.102 153.407 837.31 153.409C840.03 153.453 842.623 154.098 844.552 155.212ZM841.265 157.109C842.324 157.721 842.954 158.537 843.032 159.4C843.038 159.519 843.208 159.614 843.414 159.615L845.43 159.611C845.536 159.611 845.637 159.587 845.711 159.543C845.785 159.5 845.825 159.441 845.823 159.38C845.645 156.72 841.94 154.582 837.334 154.479C837.229 154.477 837.126 154.501 837.051 154.544C836.976 154.586 836.933 154.645 836.933 154.706L836.928 155.869C836.928 155.989 837.093 156.087 837.3 156.09C838.792 156.135 840.205 156.498 841.265 157.109ZM841.066 159.549C840.993 159.593 840.891 159.617 840.785 159.617L837.301 159.621C837.198 159.621 837.1 159.598 837.028 159.556C836.955 159.514 836.914 159.457 836.915 159.398L836.922 157.386C836.92 157.325 836.963 157.266 837.04 157.224C837.116 157.182 837.22 157.159 837.326 157.163C839.37 157.264 840.997 158.203 841.173 159.384C841.178 159.445 841.14 159.505 841.066 159.549Z" fill="black"/>
<path fill-rule="evenodd" clip-rule="evenodd" d="M834.34 147.374L833.47 146.872C832.989 146.594 832.211 146.593 831.733 146.869L824.228 151.203C823.749 151.479 823.751 151.928 824.232 152.205L825.102 152.708C825.583 152.985 826.361 152.986 826.839 152.71L834.344 148.377C834.823 148.101 834.821 147.652 834.34 147.374ZM827.387 145.693L828.257 146.196C828.738 146.473 828.74 146.922 828.261 147.198L822.777 150.365C822.298 150.641 821.521 150.64 821.04 150.362L820.17 149.86C819.689 149.582 819.687 149.133 820.165 148.857L825.65 145.691C826.128 145.414 826.906 145.416 827.387 145.693ZM822.175 145.018L821.304 144.515C820.824 144.237 820.046 144.236 819.568 144.512L816.104 146.512C815.625 146.789 815.627 147.237 816.108 147.515L816.979 148.018C817.459 148.295 818.237 148.296 818.715 148.02L822.179 146.02C822.657 145.744 822.655 145.295 822.175 145.018ZM816.38 143.672L815.51 143.17C815.029 142.892 814.252 142.891 813.774 143.167L812.042 144.167C811.563 144.443 811.565 144.892 812.046 145.17L812.916 145.672C813.397 145.95 814.175 145.951 814.653 145.675L816.385 144.675C816.863 144.399 816.861 143.95 816.38 143.672Z" fill="black"/>
</g>
<defs>
<linearGradient id="paint0_linear_1013_554" x1="782.917" y1="89.5043" x2="467.962" y2="635.023" gradientUnits="userSpaceOnUse">
<stop stop-color="#047BFF"/>
<stop offset="1" stop-color="white"/>
</linearGradient>
<clipPath id="clip0_1013_554">
<rect width="938" height="554" fill="white"/>
</clipPath>
</defs>
</svg>
