<svg width="1920" height="167" viewBox="0 0 1920 167" fill="none" xmlns="http://www.w3.org/2000/svg">
<path d="M204.725 103.955C2.66325 155.27 -306.467 167 -19.7354 167H1987C1962.01 166.82 1987.56 127.543 1957.24 123.242C1918.24 117.711 1755.37 9.61657 1713.5 0C1674.41 140.413 1576.97 123.951 1523.5 42.7022C1523.5 42.7022 1493 91.1114 1432 103.955C1313.29 128.948 1358 164.061 1276 60C1269 83.5 1235.5 120.242 1200.5 123.242C1156.5 134.742 1139.59 90.6294 1117.5 54.4394L1001.13 123.242C1001.13 123.242 897.138 92.4931 889.139 66.8182L847.644 116.798C847.644 116.798 821.379 109.313 809.88 75.7424C809.88 75.7424 732.499 93.081 702 97C671.501 100.919 635.902 60.197 590.408 34C590.408 34 587.319 52.3788 579.909 54.4394C572.5 56.5 561.912 46.6667 561.912 46.6667C561.912 46.6667 536.915 74.0152 525.416 83.2273C513.918 92.4394 455.694 112.879 455.694 112.879C455.694 112.879 398.701 80.9242 335.709 52.1364C335.709 52.1364 260.964 89.6722 204.725 103.955Z" fill="#242424"/>
</svg>
