<svg width="1920" height="314" viewBox="0 0 1920 314" fill="none" xmlns="http://www.w3.org/2000/svg">
<rect x="-190" y="114" width="2232" height="200" fill="black"/>
<path d="M56.7684 75.1994C-145.319 126.711 -454.489 138.486 -167.721 138.486L2135 146C2103.65 145.774 1875 26.8041 1875 26.8041C1852.5 114.654 1671.05 7.66789 1636 1.5C1636 1.5 1558 93.5 1513.5 101C1513.5 101 1422 3.49999 1422 6.99992C1283 131 1233 52.4999 1233 52.4999L1137 94.5612C1137 94.5612 1047 45.5 979.769 6.99987C938.5 71 853.269 94.5612 853.269 94.5612C853.269 94.5612 749.269 63.6941 741.269 37.9209L699.769 88.0919C699.769 88.0919 659.5 69 646 23.1828L557.608 88.0919C557.608 88.0919 455.769 50.3471 425.269 6.99987L307.769 84.1579C307.769 84.1579 250.769 52.0809 187.769 23.1828C187.769 23.1828 113.014 60.8624 56.7684 75.1994Z" fill="black" stroke="black"/>
</svg>
