<svg width="1920" height="171" viewBox="0 0 1920 171" fill="none" xmlns="http://www.w3.org/2000/svg">
<path d="M204.725 103.955C2.66325 155.27 -306.467 167 -19.7354 167H1987C1962.01 166.82 1987.56 127.543 1957.24 123.242C1918.24 117.711 1755.37 9.61657 1713.5 0C1674.41 140.413 1576.97 123.951 1523.5 42.7022C1523.5 42.7022 1493 91.1114 1432 103.955C1313.29 128.948 1358 164.061 1276 60C1269 83.5 1235.5 120.242 1200.5 123.242C1156.5 134.742 1139.59 90.6294 1117.5 54.4394L1001.13 123.242C1001.13 123.242 897.138 92.4931 889.139 66.8182L847.644 116.798C847.644 116.798 821.379 109.313 809.88 75.7424C809.88 75.7424 732.499 93.081 702 97C671.501 100.919 635.902 60.197 590.408 34C590.408 34 587.319 52.3788 579.909 54.4394C572.5 56.5 561.912 46.6667 561.912 46.6667C561.912 46.6667 536.915 74.0152 525.416 83.2273C513.918 92.4394 455.694 112.879 455.694 112.879C455.694 112.879 398.701 80.9242 335.709 52.1364C335.709 52.1364 260.964 89.6722 204.725 103.955Z" fill="#242424"/>
<path d="M56.7684 99.1994C-145.319 150.711 -454.489 162.486 -167.721 162.486L2135 170C2103.65 169.774 1875 50.8041 1875 50.8041C1852.5 138.654 1671.05 31.6679 1636 25.5C1636 25.5 1558 117.5 1513.5 125C1513.5 125 1422 27.5 1422 30.9999C1283 155 1233 76.4999 1233 76.4999L1137 118.561C1137 118.561 1047 69.5 979.769 30.9999C938.5 95 853.269 118.561 853.269 118.561C853.269 118.561 749.269 87.6941 741.269 61.9209L699.769 112.092C699.769 112.092 659.5 93 646 47.1828L557.608 112.092C557.608 112.092 455.769 74.3471 425.269 30.9999L307.769 108.158C307.769 108.158 250.769 76.0809 187.769 47.1828C187.769 47.1828 113.014 84.8624 56.7684 99.1994Z" fill="black" stroke="black"/>
</svg>
